# xmcd
#
# Track frame offsets: 
#        150
#        23530
#        38715
#        51137
#        62430
#        76992
#        93085
#        105080
#        121662
#        137920
#        153152
#        169665
#        182707
#        197565
#        214807
#        227070
#        238990
#        249780
#        266090
#        287262
#
# Disc length: 4064 seconds
#
# Revision: 2
# Processed by: cddbd v1.5.2PL0 Copyright (c) Steve Scherf et al.
# Submitted via: ExactAudioCopy v1.0b1
#
DISCID=f50fde14
DTITLE=Various Artist - DANCE PANIC! presents EUROPANIC! VOL.1
DYEAR=2000
DGENRE=Eurobeat
TTITLE0=MISTER MAX - MY ENERGY
TTITLE1=BABY ENERGY - BOOM BOOM IN MY HEART
TTITLE2=MISTER TOM - SEX BANG
TTITLE3=CHEMICAL BOY - KING OF FIRE
TTITLE4=ROMEO - TOKIO NIGHT
TTITLE5=LAURIE - GAME
TTITLE6=CYBORG - CYBERNETIC FIRE
TTITLE7=FIRE MAN - DANCING IN THE DARK
TTITLE8=DEBBIE KEY - NEVER ENDING LOVE
TTITLE9=LADY PRINCESS - QUEEN OF THE NIGHT
TTITLE10=MAX CASANOVA - DON'T STOP MOVING
TTITLE11=DAVID - REVOLUTION
TTITLE12=MARK FOSTER - MAN OF THE MOON
TTITLE13=KNICK KNACK - YOUR LOVE AGAIN
TTITLE14=LISA FERRARI - LOVE IN MUSIC
TTITLE15=JOE TEMPEST - SHOCK THE NIGHT
TTITLE16=MARY LONDON - SUNSHINE OF YOUR LOVE
TTITLE17=KEKI - SAY GOODBYE
TTITLE18=MICHAEL FORTUNATI - INTO THE NIGHT 2000 (P.K.G. Euro Tech Mix
TTITLE18=)
TTITLE19=AXEL FORCE - I DON'T WANT TO MISS A THING (Red Monster Mix)
EXTD=YEAR: 2000
EXTT0=
EXTT1=
EXTT2=
EXTT3=
EXTT4=
EXTT5=
EXTT6=
EXTT7=
EXTT8=
EXTT9=
EXTT10=
EXTT11=
EXTT12=
EXTT13=
EXTT14=
EXTT15=
EXTT16=
EXTT17=
EXTT18=
EXTT19=
PLAYORDER=
